<svg id="Capa_1" data-name="Capa 1" xmlns="http://www.w3.org/2000/svg" viewBox="0 0 195 195"><defs><style>.cls-1,.cls-2{fill:none;stroke-linecap:round;stroke-miterlimit:10;stroke-width:3px;}.cls-1{stroke:#fff;}.cls-2{stroke:#07ba96;}</style></defs><title>CC logo web</title><line class="cls-1" x1="97.5" y1="165.38" x2="29.62" y2="165.38"/><line class="cls-1" x1="29.62" y1="125.62" x2="29.62" y2="165.38"/><line class="cls-1" x1="165.38" y1="29.62" x2="97.5" y2="29.62"/><line class="cls-1" x1="29.62" y1="29.62" x2="29.62" y2="97.5"/><line class="cls-1" x1="165.38" y1="97.5" x2="165.38" y2="165.38"/><line class="cls-1" x1="165.38" y1="29.62" x2="165.38" y2="69.38"/><line class="cls-1" x1="69.38" y1="29.62" x2="29.62" y2="29.62"/><line class="cls-1" x1="165.38" y1="165.38" x2="125.62" y2="165.38"/><line class="cls-1" x1="145.5" y1="145.5" x2="97.5" y2="193.5"/><line class="cls-1" x1="97.5" y1="1.5" x2="49.5" y2="49.5"/><line class="cls-1" x1="145.5" y1="49.5" x2="193.5" y2="97.5"/><line class="cls-1" x1="1.5" y1="97.5" x2="50.23" y2="144.77"/><line class="cls-1" x1="29.62" y1="69.38" x2="1.5" y2="97.5"/><line class="cls-1" x1="193.5" y1="97.5" x2="165.38" y2="125.62"/><line class="cls-1" x1="97.5" y1="193.5" x2="69.38" y2="165.38"/><line class="cls-1" x1="125.62" y1="29.62" x2="97.5" y2="1.5"/><path class="cls-2" d="M100.1,49s19.49,31.45,0,50.94c-16,16,0,51.35,0,51.35" transform="translate(-2.5 -2.5)"/><path class="cls-2" d="M136.09,64s-8.47,36-36,36c-22.67,0-36.31,36.31-36.31,36.31" transform="translate(-2.5 -2.5)"/><path class="cls-2" d="M151.07,100.28s-31.46,19.49-50.95,0c-16-16-51.35,0-51.35,0" transform="translate(-2.5 -2.5)"/><path class="cls-2" d="M136,136.27s-36-8.47-36-36c0-22.67-36.31-36.3-36.31-36.3" transform="translate(-2.5 -2.5)"/><line class="cls-1" x1="49.5" y1="49.5" x2="61.27" y2="61.47"/><line class="cls-1" x1="97.4" y1="29.61" x2="97.6" y2="46.46"/><line class="cls-1" x1="145.5" y1="49.5" x2="133.53" y2="61.47"/><line class="cls-1" x1="165.39" y1="97.6" x2="148.54" y2="97.8"/><line class="cls-1" x1="145.5" y1="145.5" x2="133.53" y2="133.73"/><line class="cls-1" x1="97.4" y1="165.39" x2="97.6" y2="148.75"/><line class="cls-1" x1="50.31" y1="144.69" x2="61.27" y2="133.93"/><line class="cls-1" x1="29.61" y1="97.6" x2="46.25" y2="97.8"/></svg>